<svg width="138" height="147" viewBox="0 0 138 147" fill="none" xmlns="http://www.w3.org/2000/svg">
<g clip-path="url(#clip0_15_919)">
<path fill-rule="evenodd" clip-rule="evenodd" d="M68.9912 29.3965L47.7448 50.5223C47.5079 50.748 47.5902 50.6659 47.426 50.8444L37.7925 60.5234C37.7693 60.545 37.7341 60.5789 37.7112 60.6006L29.1222 69.1626C29.0958 69.1862 29.0583 69.2174 29.032 69.241L23.5562 74.6526C23.5326 74.6767 23.5 74.7131 23.4761 74.7375L21.0537 77.1056C21.0305 77.129 20.997 77.1644 20.974 77.1883L18.2077 80.0072C17.7388 80.6975 17.9915 86.4017 17.9912 87.5039V111.724C17.9917 113.691 17.8988 115.893 17.9925 117.831C18.0031 118.052 18.01 118.189 18.0622 118.395L18.7469 119.969C19.1507 120.533 19.8666 121.155 20.3885 121.454C21.7289 122.223 29.9067 121.854 32.142 121.849L105.179 121.834C108.46 121.816 115.995 122.544 118.214 121.089C118.565 120.859 118.657 120.701 118.939 120.331C119.19 120.002 119.346 119.861 119.556 119.474C120.425 117.869 119.947 114.146 119.947 112.218L119.945 87.8336C119.945 86.7971 120.184 80.7705 119.771 80.0487C119.752 80.016 119.723 79.9786 119.702 79.9489L106.563 66.8581C106.459 66.7585 106.4 66.7054 106.309 66.6176L103.846 64.1248C103.822 64.0987 103.791 64.0616 103.767 64.0358L101.773 62.0775C101.748 62.0539 101.711 62.0222 101.686 61.9984L100.203 60.5C100.18 60.4764 100.145 60.4415 100.122 60.4181L98.2106 58.5283C98.1881 58.5051 98.1536 58.4705 98.1312 58.4474C98.0986 58.4142 98.0047 58.321 97.9724 58.2875L96.4077 56.7087C96.35 56.6509 96.1439 56.4532 96.0734 56.3839L94.9305 55.2217C94.9061 55.1969 94.8733 55.161 94.8486 55.1359L91.7734 52.1133C91.7499 52.09 91.7144 52.0558 91.691 52.0322L85.0711 45.4552C84.8635 45.2395 84.8874 45.2329 84.6799 45.0135L82.0442 42.3786C82.0205 42.3525 81.9892 42.3151 81.965 42.2893L81.6229 41.9519C81.3243 41.6691 81.4796 41.8314 81.2134 41.5498L80.7203 41.0482C80.5169 40.8561 80.6789 41.0268 80.4703 40.8145L77.7296 38.1095C77.7052 38.0837 77.6729 38.0473 77.6485 38.0212L75.0993 35.442C74.7978 35.1482 74.6336 34.9591 74.3533 34.7001L73.1867 33.5672C73.1618 33.5428 73.1266 33.5094 73.1017 33.4851L71.2769 31.6825C71.2512 31.6574 71.2157 31.624 71.1901 31.5989L70.5262 30.9411C70.2873 30.7114 70.0447 30.4377 69.8107 30.176C69.7873 30.15 69.7555 30.1128 69.7318 30.087L68.9915 29.3975L68.9912 29.3965ZM59.9028 107.085C60.2418 107.237 60.0737 107.128 60.3786 107.644L61.1697 110.001C61.528 111.141 61.468 111.572 61.7878 111.957C62.4248 110.377 61.8425 107.121 61.0287 105.501L60.8073 104.639C61.4293 104.343 61.2176 104.605 61.7405 104.166C61.9352 104.003 62.2932 103.598 62.4406 103.377C62.9214 102.656 63.2377 100.133 62.8716 98.8819L60.9767 94.19C60.2102 93.1469 60.0981 93.0379 59.1055 92.2618L58.913 92.1175C57.3241 90.9339 56.8517 91.154 55.3523 90.6617C55.3104 90.6479 55.269 90.6302 55.2258 90.6169L50.1396 89.3566L44.5815 88.7443C42.0957 88.2308 42.4382 88.4713 39.6136 87.6433C39.1329 87.5024 37.9609 86.9319 37.5169 86.5822C37.4737 86.5483 37.2114 86.2453 36.4395 85.8779L35.2922 85.6337C35.2904 86.3198 35.2582 86.426 35.4909 86.9875L35.9191 88.3538C35.9322 88.3924 35.9489 88.4347 35.9627 88.4728C35.9765 88.5111 35.9936 88.5539 36.0081 88.5923L36.8017 90.3762C36.8574 90.5906 36.8557 90.7209 36.9139 90.9388L38.3958 95.1223C38.6073 95.5475 38.7197 95.6884 38.8696 96.1109L39.1455 96.8626C39.162 96.8968 39.1852 96.9377 39.2022 96.9708C40.1047 98.7451 42.4384 102.94 43.7401 104.287C43.9282 104.481 43.8323 104.375 43.9931 104.534C45.7913 106.308 45.5159 106.107 47.9243 107.682C48.4136 108.002 48.4294 108 49.0026 108.253L49.5699 108.513C49.6076 108.529 49.651 108.547 49.689 108.563L50.0474 108.708C51.3964 109.233 53.9801 109.595 55.7192 109.311C56.333 109.211 57.5252 108.931 58.0933 108.597L58.6191 108.284C59.1344 107.978 58.7076 108.32 59.0984 107.958C59.6403 107.456 59.2976 107.359 59.9026 107.085L59.9028 107.085ZM63.8764 94.2587C63.8764 95.7246 63.8131 97.3862 64.5712 98.6628C66.3506 101.659 66.7217 98.9202 64.9757 103.263C64.5431 104.338 64.4186 105.383 64.2968 106.759C64.1876 107.991 64.0041 109.283 64.0675 110.572C64.0875 110.979 64.2844 113.369 64.5297 113.785L65.6128 108.037C66.0945 106.369 66.8247 104.52 67.6693 102.997C68.9843 103.457 69.5834 104.599 70.9916 104.943L71.4566 105.074C71.4765 105.082 71.5143 105.108 71.5328 105.117C73.2711 105.949 75.6868 105.939 77.5962 105.767C78.5089 105.685 78.8427 105.499 79.6876 105.276C80.4193 105.083 79.674 105.295 80.1829 105.091L84.5127 102.978C84.5448 102.959 84.5884 102.937 84.6199 102.919C84.6513 102.9 84.6927 102.875 84.7233 102.856C84.7533 102.837 84.7928 102.81 84.8224 102.791C85.916 102.104 86.8585 101.506 87.7943 100.647C87.8209 100.622 87.8574 100.589 87.884 100.565L91.2219 97.3011C91.8774 96.5607 92.7102 95.8832 93.2501 95.0643L93.8575 94.1822C94.0212 93.9606 93.9692 94.0327 94.1396 93.7904L98.3474 86.9673C98.431 86.7777 98.5491 86.4929 98.6543 86.2731L101.422 79.5227L102.283 75.8527C102.447 74.9996 102.647 74.2983 102.591 73.1454C101.61 73.1336 100.566 73.6542 99.7618 74.0396C98.2476 74.765 96.814 75.4806 95.196 76.0192L94.4665 76.2862C92.9293 76.7936 89.6243 77.0983 88.1227 77.447C86.9847 77.7113 85.7183 77.5151 84.6024 77.7344C82.9721 78.0549 81.0563 78.1881 79.4674 78.6903C79.2998 78.7434 79.3121 78.7486 79.0693 78.8071C78.712 78.8932 78.552 78.9008 78.2634 78.9834C78.1566 79.0139 77.8637 79.1064 77.649 79.1848L75.5239 79.8695C75.4041 79.9218 75.3498 79.9533 75.1849 80.0177L70.6613 82.2627C70.4357 82.4051 70.3297 82.4162 70.1177 82.5499L67.9704 84.1897C67.2169 84.8409 66.3583 85.795 65.8667 86.6906C65.7235 86.9516 65.6697 87.0804 65.5151 87.3433C64.3044 89.4033 63.8767 91.7543 63.8767 94.2596L63.8764 94.2587Z" fill="white"/>
<path fill-rule="evenodd" clip-rule="evenodd" d="M68.9909 22.6047C69.0303 22.6428 69.1435 22.7274 69.1689 22.7479L74.4785 27.9799C76.3028 29.7296 78.01 31.7245 79.901 33.4432C79.9256 33.4655 79.9626 33.4973 79.9877 33.5196L80.1707 33.6736C80.2076 33.7058 80.3169 33.7988 80.3533 33.8315L83.5457 37.0611C83.5701 37.0861 83.6039 37.1213 83.6285 37.1464L83.9705 37.487C84.1694 37.6832 84.2833 37.7963 84.4606 37.9722C84.8025 38.3111 85.0261 38.4911 85.3797 38.8589C85.4921 38.976 85.6299 39.1218 85.7914 39.2967L89.248 42.7523C89.2791 42.7889 89.3661 42.8966 89.3974 42.9325L89.885 43.4189C90.2521 43.748 90.4844 43.9445 90.8354 44.3126L91.9502 45.49C91.9761 45.5129 92.0134 45.5444 92.0395 45.5672C92.0659 45.5901 92.1046 45.6206 92.131 45.6435L93.9743 47.4404C95.7829 49.0686 97.372 50.8219 99.1051 52.5367C99.2925 52.7221 99.3534 52.8001 99.5109 52.9538C99.7096 53.1473 99.8763 53.2865 100.022 53.4395L100.483 53.9751C100.514 54.01 100.603 54.1066 100.635 54.1393C101.75 55.2654 103.009 56.2631 104.056 57.4944L109.53 62.8998C109.668 63.0569 109.804 63.1983 110.005 63.4017C110.225 63.6245 110.192 63.5839 110.415 63.8321L120.299 73.739C120.324 73.7616 120.362 73.7923 120.388 73.815L122.22 75.6111C123.378 76.6521 124.424 77.7356 125.89 78.3885C128.128 79.3844 129.622 79.4216 131.95 78.7647C132.678 78.5596 133.6 78.1959 134.169 77.6972C135.228 76.7674 135.671 76.4349 136.561 75.2963C137.217 74.4573 137.54 73.4818 137.781 72.3778C138.203 70.4477 138.008 68.9163 137.246 67.0644L136.909 66.4193C136.668 65.9964 136.696 66.048 136.456 65.7239L136.311 65.5353C136.29 65.5058 136.262 65.4662 136.242 65.4362L135.773 64.7314C134.698 63.4794 133.408 62.3509 132.221 61.1991C131.978 60.9632 131.845 60.8467 131.641 60.6283L124.527 53.5582C124.503 53.5327 124.472 53.4958 124.448 53.4697L105.613 34.6592C105.59 34.6344 105.559 34.597 105.536 34.5727L105.06 34.0902C105.035 34.0678 104.999 34.0353 104.975 34.0127C104.94 33.9805 104.836 33.8888 104.8 33.8558L99.1007 28.1353C98.9607 27.9888 98.9456 27.9821 98.8581 27.8953C98.7772 27.8154 98.7267 27.7662 98.6155 27.6563L97.5401 26.5873C97.516 26.563 97.4824 26.5273 97.4578 26.5032L97.1055 26.1835C97.0796 26.1602 97.0424 26.1284 97.0167 26.1051C96.9911 26.0817 96.9541 26.0497 96.929 26.0264L92.1714 21.2313C92.147 21.2082 92.109 21.177 92.0839 21.1543L87.6241 16.7107C87.5994 16.6868 87.5637 16.6529 87.5388 16.629L70.8325 0.335937C70.8081 0.318231 70.7709 0.286754 70.745 0.271262C70.7186 0.255277 70.6784 0.228964 70.6498 0.215439C70.0172 -0.0835931 68.7458 -0.0194094 68.0469 0.0986295C67.7898 0.141911 67.8332 0.168961 67.8031 0.183962L67.616 0.320444C65.6654 1.3737 66.0244 1.36116 64.5632 2.68344L59.6793 7.53951C59.3179 7.86486 59.0105 8.18922 58.6745 8.60752C58.4151 8.93065 58.7329 8.62818 58.3106 8.96852L53.5892 13.6618C53.5663 13.6874 53.5357 13.7257 53.5128 13.7511C53.4906 13.7759 53.4593 13.8133 53.4369 13.8374C53.2609 14.028 53.0693 14.1917 52.9384 14.3093L52.3336 14.8764C52.1926 15.0131 52.1998 15.005 52.0864 15.1181L34.5754 32.5869C34.5512 32.611 34.5177 32.6467 34.4938 32.6712L33.995 33.1734C33.6166 33.5369 33.305 33.8487 32.9182 34.235C32.8129 34.3403 32.7853 34.3698 32.6749 34.4807L32.4254 34.7291C32.1909 34.959 32.0763 35.0807 31.8507 35.3072L30.3054 36.9052C30.2694 36.9408 30.1452 37.0566 30.0505 37.1348L28.6229 38.5208C27.9725 39.2627 27.437 39.4223 26.9982 40.0221C26.5818 40.5909 26.9053 40.2319 26.4763 40.6603L22.3501 44.7867C22.3266 44.8111 22.2916 44.8455 22.268 44.8696L16.2289 50.8756C16.2269 50.8775 16.0304 51.0799 15.9824 51.1289L13.2641 53.8524C13.2399 53.876 13.2049 53.9104 13.1808 53.9338L8.56789 58.3922C8.3862 58.5828 8.1584 58.837 8.01739 58.9981C7.97326 59.0488 7.84358 59.2079 7.78639 59.2654C7.76198 59.2903 7.72697 59.3245 7.70158 59.3483L4.09332 62.9896C3.01893 63.9238 2.10775 64.8039 1.30084 65.9784C1.28211 66.0055 1.25523 66.0463 1.23748 66.0741C1.19804 66.136 1.10091 66.3173 1.07009 66.3758L0.279458 68.2482C-0.142853 70.6363 -0.171697 72.2659 0.787069 73.9574C0.95767 74.2586 0.808517 73.9578 1.01092 74.3685L1.78775 75.7525C1.983 75.9687 2.04094 76.0262 2.26355 76.2601L4.66898 78.1536C5.85209 78.8402 7.46145 79.1528 8.83711 79.1491L13.0526 77.8853C13.0851 77.8669 13.1265 77.843 13.1596 77.8244L14.2613 77.0765C14.4948 76.8631 14.587 76.779 14.8508 76.5286L18.654 72.7369C18.9151 72.4698 18.9906 72.4061 19.2334 72.1782L23.5324 67.8722C23.7795 67.6169 23.8041 67.6098 24.0356 67.389L25.1936 66.2287C25.4512 65.9634 25.5217 65.9194 25.767 65.6688L27.0936 64.3227C27.1481 64.2619 27.2704 64.1336 27.3325 64.0691L27.8781 63.492C27.9133 63.4538 28.0598 63.2987 28.1216 63.2372C28.1468 63.2121 28.1818 63.1782 28.2072 63.1533L35.0026 56.4273C35.0275 56.403 35.0623 56.3683 35.0869 56.3437C35.1114 56.3194 35.1451 56.2837 35.1695 56.2591L39.7282 51.7363C39.7513 51.7107 39.7829 51.6736 39.8058 51.6482C39.9141 51.5285 39.8041 51.6261 40.04 51.3876L45.5843 45.8724C45.6077 45.8481 45.641 45.8127 45.6649 45.7888C45.6886 45.765 45.7241 45.7318 45.7483 45.7084C45.908 45.5525 45.8612 45.6076 46.0059 45.4691L47.3125 44.1424C47.3359 44.1183 47.3697 44.0832 47.3936 44.0593L49.285 42.1508C49.3087 42.1274 49.3447 42.0944 49.3688 42.0713C49.393 42.0482 49.4302 42.0165 49.4549 41.9936L51.7057 39.7924C51.7287 39.7693 51.7619 39.7332 51.7849 39.7101L54.3394 37.0537C54.8419 36.4293 54.0295 37.2844 54.5002 36.8843L54.6414 36.7849C54.6732 36.761 54.7797 36.6907 54.8155 36.6624L58.067 33.439C58.8426 32.6063 59.5622 31.9827 60.3021 31.213L68.3938 23.1396C68.5649 22.9618 68.8099 22.7715 68.9911 22.6047H68.9909Z" fill="white"/>
</g>
<path d="M29.6572 134.469C29.6572 134.702 29.5681 134.894 29.39 135.045C29.2119 135.21 28.9934 135.292 28.7343 135.292H25.6015V145.909C25.6015 146.143 25.5124 146.342 25.3343 146.506C25.1562 146.657 24.9376 146.733 24.6786 146.733H22.9786C22.3633 146.733 22.0557 146.458 22.0557 145.909V135.292H18.9229C18.6638 135.292 18.4452 135.21 18.2671 135.045C18.089 134.894 18 134.702 18 134.469V133.049C18 132.816 18.089 132.617 18.2671 132.453C18.4452 132.302 18.6638 132.226 18.9229 132.226H28.7343C28.9934 132.226 29.2119 132.302 29.39 132.453C29.5681 132.617 29.6572 132.816 29.6572 133.049V134.469Z" fill="white"/>
<path d="M38.3043 135.292V137.72H42.02C42.279 137.72 42.4976 137.796 42.6757 137.947C42.8538 138.111 42.9428 138.303 42.9428 138.523V139.901C42.9428 140.121 42.8538 140.313 42.6757 140.477C42.4976 140.628 42.279 140.704 42.02 140.704H38.3043V143.667H43.4529C43.7119 143.667 43.9305 143.749 44.1086 143.914C44.2867 144.064 44.3757 144.257 44.3757 144.49V145.909C44.3757 146.143 44.2867 146.342 44.1086 146.506C43.9305 146.657 43.7119 146.733 43.4529 146.733H36.1428C35.7542 146.733 35.4223 146.609 35.1471 146.362C34.8881 146.115 34.7585 145.827 34.7585 145.498V133.461C34.7585 133.118 34.8962 132.83 35.1714 132.597C35.4142 132.35 35.7381 132.226 36.1428 132.226H43.4529C43.7119 132.226 43.9305 132.302 44.1086 132.453C44.2867 132.617 44.3757 132.816 44.3757 133.049V134.469C44.3757 134.702 44.2867 134.894 44.1086 135.045C43.9305 135.21 43.7119 135.292 43.4529 135.292H38.3043Z" fill="white"/>
<path d="M60.2822 137.041C60.2822 138.344 59.756 139.469 58.7036 140.416C57.635 141.39 56.3398 141.877 54.8178 141.877H53.1421V145.909C53.1421 146.458 52.8426 146.733 52.2435 146.733H50.5193C49.9202 146.733 49.6207 146.458 49.6207 145.909V133.461C49.6207 133.132 49.7502 132.844 50.0093 132.597C50.2845 132.35 50.6164 132.226 51.005 132.226H54.8178C56.3236 132.226 57.6188 132.713 58.7036 133.687C59.756 134.634 60.2822 135.752 60.2822 137.041ZM56.7364 137.041C56.7364 136.547 56.534 136.129 56.1293 135.786C55.7569 135.429 55.2793 135.251 54.6964 135.251H53.1421V138.852H54.6964C55.2469 138.852 55.7245 138.674 56.1293 138.317C56.534 137.96 56.7364 137.535 56.7364 137.041Z" fill="white"/>
<path d="M68.1052 132.226C68.3643 132.226 68.5828 132.302 68.7609 132.453C68.939 132.617 69.0281 132.816 69.0281 133.049V143.667H73.5452C73.8043 143.667 74.0148 143.749 74.1767 143.914C74.3548 144.064 74.4438 144.257 74.4438 144.49V145.909C74.4438 146.458 74.1443 146.733 73.5452 146.733H66.8666C66.4781 146.733 66.1462 146.609 65.8709 146.362C65.6119 146.115 65.4824 145.827 65.4824 145.498V133.049C65.4824 132.816 65.5714 132.617 65.7495 132.453C65.9276 132.302 66.1462 132.226 66.4052 132.226H68.1052Z" fill="white"/>
<path d="M85.7938 132.144C86.0529 132.144 86.2714 132.226 86.4495 132.391C86.6276 132.542 86.7167 132.734 86.7167 132.967V134.284C86.7167 134.517 86.6276 134.716 86.4495 134.881C86.2714 135.032 86.0529 135.107 85.7938 135.107H84.4338V143.77H85.7938C86.0529 143.77 86.2714 143.852 86.4495 144.016C86.6276 144.167 86.7167 144.359 86.7167 144.593V145.909C86.7167 146.143 86.6276 146.342 86.4495 146.506C86.2714 146.657 86.0529 146.733 85.7938 146.733H79.5038C79.2447 146.733 79.0262 146.657 78.8481 146.506C78.67 146.342 78.5809 146.143 78.5809 145.909V144.593C78.5809 144.359 78.67 144.167 78.8481 144.016C79.0262 143.852 79.2447 143.77 79.5038 143.77H80.8638V135.107H79.5038C79.2447 135.107 79.0262 135.032 78.8481 134.881C78.67 134.716 78.5809 134.517 78.5809 134.284V132.967C78.5809 132.734 78.67 132.542 78.8481 132.391C79.0262 132.226 79.2447 132.144 79.5038 132.144H85.7938Z" fill="white"/>
<path d="M101.887 143.914C102.098 144.119 102.203 144.339 102.203 144.572C102.203 144.778 102.13 144.963 101.984 145.128L101.96 145.148C100.73 146.383 99.1509 147 97.2243 147C95.5243 147 94.0833 146.444 92.9014 145.333C91.7681 144.25 91.2014 142.981 91.2014 141.527V137.453C91.2014 135.999 91.7762 134.73 92.9257 133.646C94.1076 132.549 95.5405 132 97.2243 132C99.1995 132 100.77 132.61 101.936 133.831C102.098 133.982 102.179 134.181 102.179 134.428C102.179 134.634 102.09 134.846 101.911 135.066L100.94 135.971C100.73 136.15 100.503 136.239 100.26 136.239C100.13 136.239 100.017 136.218 99.92 136.177C99.7743 136.136 99.6448 136.053 99.5314 135.93C98.9324 135.354 98.1633 135.066 97.2243 135.066C96.5605 135.066 95.9857 135.306 95.5 135.786C94.9981 136.266 94.7471 136.822 94.7471 137.453V141.527C94.7471 142.171 94.9981 142.734 95.5 143.214C95.9857 143.694 96.5605 143.934 97.2243 143.934C98.1633 143.934 98.9324 143.646 99.5314 143.07C99.6448 142.947 99.7743 142.864 99.92 142.823C100.017 142.782 100.122 142.761 100.236 142.761C100.349 142.761 100.454 142.775 100.551 142.802C100.697 142.857 100.827 142.933 100.94 143.029L101.887 143.914Z" fill="white"/>
<path d="M119.976 145.601C119.992 145.656 120 145.752 120 145.889C120 146.122 119.911 146.321 119.733 146.486C119.539 146.65 119.304 146.733 119.029 146.733H117.499C116.916 146.733 116.543 146.486 116.381 145.992L115.531 143.543H111.184L110.31 145.992C110.148 146.486 109.784 146.733 109.217 146.733H107.711C107.436 146.733 107.201 146.65 107.007 146.486C106.829 146.321 106.74 146.122 106.74 145.889C106.74 145.752 106.748 145.656 106.764 145.601L111.427 132.844C111.589 132.364 111.961 132.123 112.544 132.123H114.196C114.779 132.123 115.151 132.364 115.313 132.844L119.976 145.601ZM113.346 137.247L112.204 140.56H114.487L113.346 137.247Z" fill="white"/>
<defs>
<clipPath id="clip0_15_919">
<rect width="138" height="122" fill="white"/>
</clipPath>
</defs>
</svg>
