<svg width="182" height="182"  viewBox="0 0 182 182" fill="none" xmlns="http://www.w3.org/2000/svg">
<path  fill-rule="evenodd" clip-rule="evenodd" d="M94.7406 116.51C89.1842 118.124 84.782 122.005 84.0565 122.171C82.697 122.483 66.1332 116.207 56.1157 130.757C55.4399 131.739 54.9956 133.438 53.7236 133.831C52.3519 134.255 50.5932 134.428 49.1138 134.921C43.5605 136.769 38.7383 140.209 37.4546 145.797L144.545 145.823C144.041 140.061 141.318 134.699 138.242 132.25C133.502 128.475 129.844 128.022 122.49 128.104C121.33 125.144 116.369 120.791 113.631 118.976C109.413 116.182 105.165 115.028 99.1497 115.488C98.643 115.712 95.735 116.182 94.7406 116.51Z" fill="white"/>
<path fill-rule="evenodd" clip-rule="evenodd" d="M100.158 77.2652L100.499 78.8981L102.81 79.184C110.081 79.286 114.736 79.2007 120.904 76.713C136.008 70.621 143.411 52.942 143.349 36.0951C131.707 35.5815 117.899 40.9091 111.574 46.3898C105.287 51.8374 101.776 58.055 100.488 66.8744C99.9629 70.4681 100.56 74.1609 100.158 77.2652Z" fill="white"/>
<path fill-rule="evenodd" clip-rule="evenodd" d="M88.4369 87.4218L91.1507 87.2533C91.4576 85.8814 90.9464 85.4043 91.5689 84.4049C91.9437 69.8982 88.0303 60.8419 80.0309 54.4603C72.2291 48.2362 58.467 43.7212 48.4878 44.3405C48.2358 56.3131 52.834 68.5982 58.5279 75.6892C64.8653 83.582 73.9746 87.8928 88.4369 87.4218Z" fill="white"/>
<path fill-rule="evenodd" clip-rule="evenodd" d="M91.5689 84.4049C90.9464 85.4043 91.4576 85.8814 91.1507 87.2533L88.4369 87.4218C91.0712 93.9447 96.0856 108.316 94.7406 116.51C95.735 116.182 98.643 115.712 99.1497 115.488L98.3422 115.483C98.2341 102.93 94.201 100.244 99.1297 86.82C100.76 82.3789 101.991 81.2294 102.81 79.184L100.499 78.8981L100.158 77.2652C98.0621 79.546 96.2466 84.4471 95.1657 87.7845C94.7667 89.0161 94.5146 90.7296 93.9751 91.7669C93.3897 90.9056 92.9849 89.3634 92.5365 88.2943C91.8251 86.5978 91.4788 86.4858 91.5689 84.4049Z" fill="white"/>
<path fill-rule="evenodd" clip-rule="evenodd" d="M91 0C141.226 0 181.942 40.7162 181.942 90.9421C181.942 141.168 141.226 181.884 91 181.884C40.7741 181.884 0.0578613 141.168 0.0578613 90.9421C0.0578613 40.716 40.7741 0 91 0ZM91 8.50687C136.528 8.50687 173.435 45.4143 173.435 90.9421C173.435 136.47 136.528 173.377 91 173.377C45.4722 173.377 8.56474 136.47 8.56474 90.9421C8.56474 45.4143 45.4722 8.50687 91 8.50687Z" fill="white"/>
</svg>
