<svg width="157" height="177" viewBox="0 0 157 177" fill="none" xmlns="http://www.w3.org/2000/svg">
<path fill-rule="evenodd" clip-rule="evenodd" d="M18.7176 49.7421C18.3214 59.1809 22.3757 75.5937 25.377 84.5561C32.0643 104.529 42.7414 120.577 56.6695 135.45C59.9314 138.933 75.5975 153.483 78.8066 154.419C81.0886 153.011 88.148 147.255 90.2729 145.329C94.1209 141.842 97.2046 139.199 100.807 135.314C115.052 119.952 124.799 105.187 132.054 84.3623C134.997 75.9174 138.935 59.5793 138.636 49.7429C137.288 49.0378 131.285 48.6642 129.163 48.2797C113.22 45.3908 97.3214 37.6549 84.7491 28.1111L78.8066 23.4127C76.674 24.1404 57.7965 42.9549 27.8863 48.3296C25.844 48.6961 20.0532 49.0533 18.7176 49.7421Z" fill="#03A9F4"/>
<path fill-rule="evenodd" clip-rule="evenodd" d="M12.6424 39.6224C27.4507 39.634 40.1273 34.91 50.9001 29.6427C57.294 26.5164 67.1834 19.7339 72.2705 15.0409C73.4022 13.9965 77.7523 9.67871 78.617 9.36896C79.9347 10.3363 80.7177 11.3792 81.9809 12.6182C84.6155 15.202 89.3524 18.9159 92.3856 21.1425C105.258 30.5937 120.859 37.5569 137.288 39.2247C141.499 39.6519 145.214 39.4449 149.38 39.6123C150.86 51.2885 147.099 72.2285 143.692 83.5211C138.083 102.11 129.294 118.618 117.79 133.067C112.402 139.833 105.753 146.9 99.4738 152.615C95.7767 155.98 81.5365 167.691 78.3469 168.732C76.1007 167.049 73.589 165.469 71.2377 163.741C64.5877 158.855 57.6552 153.009 51.8823 147.131C42.8094 137.893 37.8671 132.345 30.3088 120.566C17.3567 100.381 5.64911 68.8516 7.58558 39.5912L12.6431 39.6216L12.6424 39.6224ZM13.1833 32.2118C0.496607 32.2118 -0.446722 28.2605 0.123011 48.9755C0.835177 74.8676 9.6139 101.483 23.1069 123.169C36.0645 143.995 54.271 161.842 74.8133 175.312C76.2906 176.28 77.6285 177.626 80.0079 176.675C80.8298 176.347 83.2371 174.622 84.1081 174.028C92.8308 168.072 99.5197 162.585 107.243 155.514L117.514 144.963C121.742 140.009 125.866 135.129 129.741 129.344C133.366 123.932 136.766 118.484 140.118 112.124C151.077 91.3309 158.7 61.2316 156.673 36.886C155.768 26.0199 147.684 38.0799 118.835 27.146C105.922 22.2523 91.0064 12.1816 82.1288 2.1926C81.1131 1.04933 80.1176 -0.366328 77.5818 0.0866205C76.0874 0.353565 71.8394 5.22938 70.3777 6.65983C56.7391 20.0133 33.5443 32.2118 13.1833 32.2118Z" fill="#03A9F4"/>
</svg>
