<svg width="168" height="168" viewBox="0 0 168 168" fill="none" xmlns="http://www.w3.org/2000/svg">
<path fill-rule="evenodd" clip-rule="evenodd" d="M64.7701 42.459C64.7701 44.3584 65.3841 48.2795 65.8624 49.875C67.1796 54.2693 68.3815 56.9565 70.3424 60.8458L73.9552 66.8621C74.507 66.7337 75.2435 66.4073 75.7414 66.1844C80.4334 64.0848 82.1337 64.3995 87.1728 64.3995C89.8041 64.3995 93.8579 67.086 95.0137 67.086C95.9646 67.086 97.3782 63.9886 99.1048 62.2192L101.898 58.9661C103.768 57.085 106.415 55.1442 108.549 53.5226L111.988 50.9152C121.634 43.0652 119.661 35.459 106.727 29.6345C104.639 28.6942 100.192 27.1375 97.9577 26.756C94.4187 26.1517 91.2656 25.4443 87.3968 25.4443C80.873 25.4443 74.2215 27.3217 70.3173 30.5401C67.9014 32.5315 67.4049 33.2967 66.0685 36.1448C65.3628 37.6487 64.7701 40.6477 64.7701 42.459Z" fill="#03A9F4"/>
<path fill-rule="evenodd" clip-rule="evenodd" d="M93.8937 101.34C94.323 103.181 97.6765 108.32 98.9155 114.008C99.556 116.948 99.8887 120.995 100.449 124.341L101.905 128.931C102.517 130.341 103.244 131.448 104.361 132.521C107.287 135.333 111.689 134.832 115.069 133.248C115.654 132.974 115.891 132.891 116.451 132.613C120.963 130.373 126.208 125.842 129.195 122.066C130.802 120.035 132.654 117.68 133.923 115.373C135.643 112.249 137.718 107.492 138.048 103.824C138.427 99.6077 138.984 98.2852 137.042 93.3688C135.874 90.4127 132.773 87.7191 129.964 86.3377C128.622 85.6778 127.643 85.2036 126.071 84.631C125.025 84.2499 125.202 84.2808 123.978 84.0358C118.28 82.8945 117.794 82.5338 111.144 82.5338C108.423 82.5338 108.352 82.7262 106.894 82.7647C104.65 82.824 103.925 82.0387 103.955 84.3055C103.983 86.4066 103.993 86.6877 103.5 88.3282C102.424 91.9144 100.92 95.6599 97.8005 98.3039C97.2871 98.739 97.0653 98.9969 96.5716 99.3146L95.2696 100.252C94.7116 100.689 94.2968 100.79 93.8937 101.34Z" fill="#03A9F4"/>
<path fill-rule="evenodd" clip-rule="evenodd" d="M25.5654 88.5785C25.5654 92.853 25.9685 92.8651 26.4252 96.2266C26.7262 98.4426 27.3971 100.423 28.004 102.261L31.6008 110.084C34.9467 115.655 38.8275 120.547 44.8277 123.508C48.8487 125.492 53.0317 125.608 57.1224 123.921L60.5361 121.959C60.5877 121.919 60.7354 121.803 60.7881 121.763C64.5554 118.953 65.1341 117.834 68.0635 114.258C69.0696 113.03 72.0926 107.969 72.9626 106.169L73.4916 105.13C74.0454 104.018 75.0753 101.863 75.0753 100.668C72.9582 100.103 68.9308 96.2253 67.7492 94.7803C65.2948 91.7788 64.098 87.5918 64.098 83.2053C58.5581 83.2053 56.5306 83.177 51.1222 82.068C50.2135 81.8818 49.2239 81.6406 48.2951 81.3112C47.7104 81.1038 47.5304 80.956 47.0207 80.7937C39.1009 78.2721 41.7809 77.8321 32.286 77.8321C30.2053 77.8321 28.0945 79.8168 27.2029 81.4838C26.4035 82.9784 25.5654 86.3469 25.5654 88.5785Z" fill="#03A9F4"/>
<path fill-rule="evenodd" clip-rule="evenodd" d="M81.1241 98.6531H86.9488C89.2494 98.6531 93.6089 95.7589 94.8537 94.4632C96.6217 92.6229 98.8223 88.4607 98.8223 86.1157C98.8223 82.2402 99.0138 79.2269 96.1576 75.5698C92.1956 70.4968 87.1802 68.3722 80.5096 69.606L77.1541 70.9541C75.6738 71.8177 75.0685 72.2748 73.8619 73.485C73.6888 73.6586 73.6617 73.6854 73.5258 73.8207L72.852 74.4907C72.8199 74.5237 72.7738 74.5714 72.7421 74.6047C69.267 78.2522 68.3624 84.0199 69.8917 88.8334C70.8305 91.788 73.5196 95.1288 75.981 96.6286C77.0097 97.2555 79.6003 98.6531 81.1241 98.6531Z" fill="#03A9F4"/>
<path fill-rule="evenodd" clip-rule="evenodd" d="M84 0C130.369 0 167.958 37.5893 167.958 83.9583C167.958 130.327 130.369 167.917 84 167.917C37.6312 167.917 0.041748 130.327 0.041748 83.9583C0.041748 37.5894 37.6311 0 84 0ZM84 16.1604C121.444 16.1604 151.798 46.5145 151.798 83.9583C151.798 121.402 121.444 151.756 84 151.756C46.5563 151.756 16.2021 121.402 16.2021 83.9583C16.2021 46.5145 46.5563 16.1604 84 16.1604ZM7.58918 88.1353C10.0285 88.1353 12.006 86.1579 12.006 83.7185C12.006 81.2792 10.0285 79.3017 7.58918 79.3017C5.14984 79.3017 3.17236 81.2792 3.17236 83.7185C3.17236 86.1579 5.14984 88.1353 7.58918 88.1353ZM87.9383 8.33851C87.9383 10.7778 85.9608 12.7553 83.5215 12.7553C81.0821 12.7553 79.1046 10.7778 79.1046 8.33851C79.1046 5.89917 81.0821 3.92169 83.5215 3.92169C85.9608 3.92169 87.9383 5.89917 87.9383 8.33851ZM160.245 88.4667C162.684 88.4667 164.662 86.4892 164.662 84.0499C164.662 81.6105 162.684 79.6331 160.245 79.6331C157.806 79.6331 155.828 81.6105 155.828 84.0499C155.828 86.4892 157.806 88.4667 160.245 88.4667ZM88.0304 159.044C88.0304 161.483 86.0529 163.46 83.6136 163.46C81.1742 163.46 79.1967 161.483 79.1967 159.044C79.1967 156.604 81.1742 154.627 83.6136 154.627C86.0529 154.627 88.0304 156.604 88.0304 159.044Z" fill="#03A9F4"/>
</svg>
